<svg class="wide slow ae-1 done" viewBox="0 0 580 631" fill="none" xmlns="http://www.w3.org/2000/svg">
							<g id="Chatting">
								<g class="ae-2 done" id="monitor">
									<path></path>
									<path id="Vector" d="M2.66005 524.306L5.20491 527.361L7.74977 526.852L10.2946 526.428L12.8394 526.258H15.2994L17.8443 527.616L20.3891 527.022H22.9339L25.4788 527.107L28.0237 527.531L30.5685 526.428L33.1133 527.531L35.5734 526.937L38.1182 526.088L40.6631 526.258L43.2079 526.682L45.7527 526.852H48.2976L50.8424 526.682L53.3873 527.361L55.9321 526.343L58.477 527.191L60.9369 527.446L63.4818 526.512L66.0266 527.022H68.5715L71.1163 527.361L73.6611 526.852L76.206 526.088L78.7508 527.701L81.2957 527.531L83.8405 526.512L86.3854 526.343L88.9302 526.173L91.475 526.937L94.0199 526.512L96.4799 527.191L99.0248 526.258L101.57 527.616L104.114 526.088L106.659 527.361L109.204 526.767L111.749 526.852L114.294 527.191L116.839 526.258L119.383 527.191L121.843 526.767L124.388 527.531L126.933 527.022L129.478 526.597L132.023 526.767L134.568 527.191L137.113 526.088L139.657 527.616L142.202 526.428L144.747 526.173L147.292 527.361L149.837 527.276L152.382 526.937L154.926 527.191L157.386 526.003L159.931 526.682L162.476 527.446L165.021 527.361L167.566 526.852L170.111 527.616L172.656 526.852L175.2 527.446L177.745 526.343L180.29 527.022H182.835L185.38 526.682L187.84 526.258L190.385 527.361L192.929 526.343L195.474 526.682L198.019 526.937L200.564 527.446L203.109 526.173H205.654L208.199 527.022L210.743 526.173L213.288 526.682L215.833 526.512L218.378 527.361L220.923 527.701L223.468 526.512L226.012 526.597L228.472 526.003L231.017 526.088L233.562 526.597L236.107 527.107L238.652 527.616L241.197 527.022L243.741 527.191L246.286 527.022L248.831 526.088L251.376 527.361L253.921 527.531L256.466 527.022L259.011 526.937L261.555 526.088L264.1 526.597L266.645 526.258L269.105 527.531L271.65 526.512L274.195 526.428L276.74 526.343L279.284 526.512L281.829 527.616L284.374 526.597L286.919 527.616L289.464 527.701L292.009 527.616L294.553 526.512L297.098 526.597L299.643 527.361L302.188 526.597L304.733 526.428L307.278 527.361L309.823 526.258L312.367 527.276L314.827 527.446L317.372 526.088L319.917 526.428L322.462 526.597L325.007 527.022H327.552L330.096 526.682H332.641L335.186 526.088L337.731 526.852L340.276 526.597L342.821 527.361L345.365 527.276L347.91 526.682L350.455 527.022L353 526.512L355.545 527.446L358.09 526.852L360.635 526.937L363.179 526.258L365.724 526.767L368.269 526.343L370.814 526.767L373.274 526.343L375.819 527.022L378.364 526.258L380.908 527.531L383.453 526.173L385.998 526.258L388.543 526.173L391.088 526.428L393.633 526.682L396.178 527.616L398.722 526.258L401.267 527.361L403.812 527.701L406.357 527.446L408.902 526.767L411.447 526.512L413.907 526.937L416.451 527.191L418.996 527.531L421.541 527.446L424.086 527.107L426.631 526.597L429.176 526.512L431.721 527.361L434.265 526.512L436.81 527.191L439.355 526.173L441.9 526.003L444.445 527.531L446.99 526.852L449.534 526.767L452.079 527.191L454.624 526.258L457.169 526.428L459.714 527.701L462.259 527.276L464.803 527.446L467.348 526.003L469.893 527.107L472.438 526.852L474.983 526.512L477.528 526.088L480.073 526.428H482.617L485.162 526.597L487.707 526.767L490.252 527.022L492.797 526.937L495.342 526.088L497.886 527.531L500.346 526.597L502.891 526.088L505.436 527.616L507.981 527.022L510.526 526.767L513.071 526.597L515.615 527.191L518.16 527.531L520.705 526.088L523.25 526.428L525.795 526.682L528.34 527.022L530.885 526.003L533.429 527.191L535.974 526.173L538.519 526.937L541.149 527.191L543.863 524.306L543.948 521.759L543.778 519.213L543.269 516.666L542.845 514.12L544.372 511.573L544.457 509.027L544.372 506.481L544.203 503.934L543.609 501.388L543.354 498.841L543.269 496.38L544.118 493.833L543.015 491.287L544.033 488.741L543.524 486.194L543.863 483.648L544.118 481.101L543.694 478.555L543.1 476.009L542.845 473.462L544.372 470.916L543.778 468.369L543.269 465.823V463.277L543.948 460.73L542.93 458.184L543.778 455.637L543.609 453.091L543.1 450.545L543.185 447.998L543.269 445.452L543.1 442.905L544.372 440.359L544.118 437.812L542.93 435.266L544.457 432.72L544.118 430.173L543.439 427.627L544.118 425.08L543.354 422.534L544.033 419.988L543.863 417.441L543.778 414.895V412.348L543.439 409.802L543.1 407.256L543.269 404.709L542.93 402.163L543.185 399.616L544.118 397.07L543.439 394.524L544.033 391.977L543.948 389.431L543.354 386.884L544.457 384.338L544.033 381.791L543.694 379.245L543.524 376.699L543.778 374.152L543.948 371.606L543.269 369.059L544.203 366.513L543.524 363.967L543.948 361.42L543.694 358.874L542.93 356.327L543.863 353.781L544.118 351.235L543.1 348.773L543.863 346.227L543.354 343.68L543.269 341.134L542.845 338.587L543.185 336.041L544.118 333.495L543.524 330.948L544.372 328.402L542.93 325.855L543.524 323.309L543.1 320.763L542.845 318.216L543.439 315.67L543.015 313.123L543.524 310.577V308.031L543.015 305.484L543.863 302.938L543.439 300.391L544.372 297.845L544.287 295.299L542.93 292.752L542.845 290.206L543.439 287.659L543.1 285.113L543.185 282.566L544.118 280.02L542.845 277.474L544.287 274.927L543.948 272.381L544.372 269.834L543.015 267.288L543.185 264.742L544.203 262.195L543.948 259.649L543.015 257.102L544.033 254.556L543.524 252.01L543.1 249.463L543.609 246.917L543.1 244.37L543.609 241.824L543.694 239.278L543.354 236.731L543.1 234.185L544.372 231.638L543.863 229.007L544.372 226.461L543.015 223.914L543.524 221.368L543.694 218.821V216.275L544.118 213.729L544.033 211.182L543.015 208.636L543.524 206.089L544.457 203.543L543.609 200.997L541.149 197.686L538.604 198.365L536.059 198.875L533.514 199.214H530.969L528.425 197.686L525.88 198.79L523.42 197.601L520.875 198.28L518.33 198.365L515.785 199.044L513.24 197.771L510.695 198.875L508.151 198.535L505.606 198.28L503.146 199.214L500.601 197.686L498.056 197.771L495.511 198.875L492.966 197.601L490.422 198.959L487.877 197.941L485.332 199.129L482.787 197.686H480.242L477.697 198.535L475.152 199.044L472.692 198.705L470.148 198.111L467.603 198.535L465.058 197.856L462.513 198.705L459.968 198.026L457.423 199.129L454.879 198.45L452.334 198.026L449.789 197.941L447.244 197.771L444.699 198.959L442.239 198.875L439.694 199.299L437.15 197.941L434.605 198.026L432.06 198.45L429.515 198.111L426.97 199.044L424.425 198.195L421.88 198.79L419.336 197.771L416.791 197.686L414.331 197.771L411.786 199.129L409.241 197.856L406.696 197.941L404.151 197.601L401.607 197.771L399.062 198.195L396.517 197.771L393.972 198.705L391.427 198.79L388.882 197.601L386.337 197.686L383.793 198.62L381.248 197.686L378.788 198.111L376.243 198.62L373.698 198.111L371.153 198.195L368.608 198.365L366.064 198.535L363.519 197.941L360.974 199.214L358.429 198.026L355.884 198.705L353.339 198.959L350.794 199.129L348.25 197.941H345.79L343.245 199.129L340.7 198.705L338.155 197.771L335.61 198.28L333.065 198.111H330.521L327.976 198.026L325.431 198.959H322.886L320.341 198.875L317.796 197.686L315.252 197.771L312.707 198.875L310.162 198.45L307.702 198.535L305.157 198.959L302.612 199.214L300.067 198.705L297.522 199.129L294.978 199.214L292.433 198.79L289.888 198.45L287.343 197.771L284.798 199.044L282.253 197.686L279.709 198.535L277.164 199.044L274.619 197.771L272.074 198.28L269.529 198.111L266.984 197.771L264.524 198.79L261.98 198.959L259.435 197.856L256.89 198.195L254.345 197.856L251.8 198.111L249.255 198.62L246.71 198.875L244.166 198.959L241.621 198.62L239.076 198.79L236.531 198.959L233.986 199.129H231.441L228.897 198.45L226.352 198.28L223.807 199.044L221.262 198.959L218.717 197.771L216.172 199.214L213.712 198.365L211.167 197.771L208.623 197.601L206.078 197.771L203.533 197.601L200.988 198.959L198.443 199.044L195.898 198.45L193.354 199.299L190.809 198.959L188.264 198.535L185.719 197.941L183.174 198.111L180.629 198.026L178.085 197.771L175.54 198.111L172.995 198.45L170.45 199.214H167.905L165.36 199.129L162.815 198.705L160.271 197.686L157.811 199.214L155.266 198.28L152.721 197.856L150.176 198.875L147.631 197.601L145.086 198.535L142.542 199.214L139.997 199.129L137.452 198.365H134.907L132.362 197.601L129.817 198.79L127.272 197.856L124.728 199.214L122.183 199.044L119.638 198.026L117.093 198.959L114.548 197.856L112.088 197.771L109.543 198.535L106.999 198.45L104.454 198.28L101.909 198.535L99.3641 199.044H96.8193L94.2744 198.28L91.7296 199.044H89.1847L86.6399 198.79L84.095 198.62L81.5502 198.365L79.0054 197.771L76.4605 197.856L73.9157 199.044L71.3708 198.79L68.826 198.959L66.2811 198.365L63.7363 198.79L61.1915 198.535L58.6466 198.365L56.1018 198.111L53.5569 198.28L51.0121 198.705L48.4672 198.62L45.9224 197.771L43.3776 199.129H40.8327L38.2879 198.535L35.743 198.705H33.1982L30.6533 198.365L28.1085 197.686H25.5637H23.0188L20.4739 199.044L17.9292 198.195L15.3843 197.856L12.8394 198.111L10.2946 199.044L7.74977 198.45L5.20491 197.601L2.06624 200.997V203.543L2.49043 206.089L1.89662 208.636L2.82967 211.182L2.49043 213.729L2.06624 216.275L1.8118 218.737L3.25386 221.283L1.89662 223.829L3.08423 226.376L3.42348 228.922L2.74486 231.469L3.08423 234.015L1.98143 236.561L2.82967 239.108L2.49043 241.654L2.23593 244.201L2.06624 246.747L1.98143 249.293V251.84L2.82967 254.386L1.8118 256.933L2.32074 259.479L2.15105 262.025L1.89662 264.572L2.40555 267.118L2.91455 269.665L2.32074 272.211L2.40555 274.757L1.89662 277.304L3.42348 279.85L2.32074 282.397L3.08423 284.943L1.98143 287.49V290.036L2.15105 292.582L2.91455 295.129L2.40555 297.675V300.222L3.08423 302.768L2.74486 305.314L2.15105 307.861L2.40555 310.407L2.15105 312.954L3.25386 315.5L2.32074 318.046L2.66005 320.593L2.40555 323.139L2.06624 325.686L2.82967 328.232V330.778L2.74486 333.325L2.15105 335.871L1.98143 338.418L2.82967 340.964L2.49043 343.511L2.57524 346.057L1.98143 348.603L2.15105 351.15L2.49043 353.696L2.57524 356.243L3.42348 358.789L2.32074 361.335L2.15105 363.882L3.50836 366.428L2.23593 368.89L2.15105 371.436L3.42348 373.983L2.99936 376.529L2.32074 379.075L1.89662 381.622L3.33867 384.168L2.06624 386.715L2.91455 389.261L3.33867 391.807L2.32074 394.354L2.74486 396.9L3.08423 399.447L2.57524 401.993L2.40555 404.539L2.49043 407.086L2.91455 409.632L2.57524 412.179L2.32074 414.725L3.42348 417.271L1.89662 419.818L2.32074 422.364L3.33867 424.911L2.66005 427.457L2.99936 430.003L3.33867 432.55L2.32074 435.096L3.33867 437.643L3.25386 440.189L2.74486 442.736L3.50836 445.282L2.15105 447.828L2.40555 450.375L2.82967 452.921L2.74486 455.468L2.40555 458.014L2.32074 460.56L2.15105 463.107L2.91455 465.653L2.57524 468.2L2.74486 470.746L1.8118 473.292L3.08423 475.839L2.32074 478.385L2.91455 480.932L3.50836 483.478L3.25386 486.024L2.74486 488.571L2.82967 491.117L3.25386 493.664L2.32074 496.21L2.66005 498.757L2.91455 501.303L2.06624 503.849L3.33867 506.481L2.40555 509.027L3.08423 511.573L2.91455 514.12L2.82967 516.666V519.213L3.16905 521.759L2.66005 524.306Z" fill="#F5F6FA" stroke="#1A1C28" stroke-width="2" stroke-miterlimit="10"></path>
									<path id="Vector_2" opacity="0.2" d="M216.257 629.812L217.106 626.671L216.597 624.04L216.257 621.493L216.172 618.947L216.512 616.401L216.766 613.854L217.275 611.223L216.936 608.676L216.257 606.13L216.003 603.584L216.342 600.952L217.445 598.406L216.088 595.86L217.021 593.313L217.36 590.682L217.53 588.135L217.445 585.589L217.53 583.043L216.172 580.496L217.53 577.865L216.681 575.319L217.36 572.772L217.021 570.226L217.36 567.679L216.936 565.048L217.53 562.502L216.851 559.955V557.409L216.257 554.862L217.19 552.231L216.681 549.685L217.021 547.138L216.427 544.592L216.342 542.046L217.106 539.414L216.851 536.868L217.615 534.321L217.021 531.775V529.229L216.766 526.512M329.757 629.472L328.824 626.671L329.842 624.125L329.418 621.578L330.181 618.947L329.588 616.401L329.248 613.854L329.418 611.308L329.842 608.761L328.655 606.13L330.181 603.584L328.994 601.037L328.824 598.491L329.927 595.944V593.313L329.503 590.767L329.842 588.22L328.655 585.674L329.248 583.128L330.097 580.496L329.927 577.95L329.418 575.403L330.181 572.857L329.503 570.226L330.097 567.679L328.909 565.133L329.672 562.587V560.04L329.248 557.409L328.824 554.862L329.927 552.316L328.994 549.77L329.333 547.223L329.588 544.592L330.012 542.046L328.739 539.499V536.953L329.588 534.321L328.739 531.775L329.333 529.229L329.248 526.937" stroke="#1A1C28" stroke-width="2" stroke-miterlimit="10"></path>
									<path id="Vector_3" d="M7.23121 629.531C7.28394 629.83 7.56303 630.035 7.86398 629.994L9.87041 629.727L12.4153 629.217L14.9601 628.793L17.4201 628.623H19.9649L22.5098 629.981L25.0546 629.387H27.5995L30.1443 629.472L32.6891 629.897L35.234 628.793L37.7788 629.897L40.3237 629.302L42.8685 628.454L45.4134 628.623L47.9582 629.048L50.503 629.217H53.0479L55.5927 629.048L58.1376 629.727L60.6824 628.708L63.2273 629.557L65.7721 629.812L68.3169 628.878L70.8618 629.387H73.4066L75.9515 629.727L78.4963 629.217L81.0411 628.454L83.586 630.066L86.1308 629.897L88.6757 628.878L91.2205 628.708L93.7654 628.538L96.3102 629.387L98.855 628.878L101.4 629.557L103.945 628.623L106.49 629.981L109.034 628.454L111.579 629.727L114.124 629.133L116.669 629.217L119.214 629.557L121.759 628.623L124.303 629.557L126.848 629.133L129.393 629.897L131.938 629.387L134.483 628.963L137.028 629.217L139.573 629.557L142.117 628.454L144.662 629.981L147.207 628.793L149.752 628.538L152.297 629.727L154.842 629.642L157.386 629.302L159.931 629.557L162.476 628.369L165.021 629.048L167.566 629.812L170.111 629.727L172.655 629.217L175.2 629.981L177.745 629.217L180.29 629.812L182.835 628.708L185.38 629.387L187.925 629.472L190.469 629.048L193.014 628.623L195.559 629.727L198.104 628.708L200.649 629.048L203.194 629.302L205.738 629.812L208.283 628.538H210.828L213.373 629.387L215.918 628.538L218.463 629.048L221.007 628.878L223.552 629.727L226.097 630.066L228.642 628.878L231.187 628.963L233.732 628.369L236.277 628.454L238.821 628.963L241.366 629.472L243.911 629.981L246.456 629.387L249.001 629.557L251.546 629.387L254.09 628.454L256.635 629.727L259.18 629.897L261.725 629.387L264.27 629.302L266.815 628.454L269.359 628.963L271.904 628.623L274.449 629.897L276.994 628.878L279.539 628.793L282.084 628.708L284.629 628.878L287.173 629.981L289.718 628.963L292.263 629.981L294.808 630.066L297.353 629.981L299.898 628.878L302.442 628.963L304.987 629.727L307.532 628.963L310.077 628.793L312.622 629.727L315.167 628.623L317.711 629.642L320.256 629.812L322.801 628.454L325.346 628.793L327.891 628.963L330.436 629.387H332.981L335.525 629.048H338.07L340.615 628.538L343.245 629.217L345.79 628.963L348.334 629.727L350.879 629.642L353.424 629.133L355.969 629.387L358.514 628.878L361.059 629.812L363.603 629.217L366.148 629.302L368.693 628.623L371.238 629.133L373.783 628.708L376.328 629.133L378.873 628.708L381.417 629.387L383.962 628.623L386.507 629.897L389.052 628.538L391.597 628.708L394.142 628.538L396.686 628.793L399.231 629.048L401.776 629.981L404.321 628.623L406.866 629.727L409.411 630.066L411.955 629.812L414.5 629.133L417.045 628.878L419.59 629.302L422.135 629.557L424.68 629.897L427.225 629.812L429.769 629.472L432.314 628.963L434.859 628.878L437.404 629.727L439.949 628.878L442.494 629.557L445.038 628.538L447.583 628.369L450.213 629.897L452.758 629.302L455.303 629.133L457.847 629.557L460.392 628.623L462.937 628.793L465.482 630.066L468.027 629.642L470.572 629.812L473.117 628.369L475.661 629.472L478.206 629.217L480.751 628.878L483.296 628.454L485.841 628.793H488.386L490.93 628.963L493.475 629.133L496.02 629.472L498.65 629.302L501.195 628.454L503.739 629.897L506.284 628.963L508.829 628.454L511.374 629.981L513.919 629.387L516.464 629.133L519.008 629.048L521.553 629.557L524.098 629.897L526.643 628.454L529.188 628.793L531.733 629.048L534.278 629.387L536.907 628.454L539.452 629.557L541.997 628.538L544.361 629.248C544.451 629.275 544.542 629.207 544.542 629.113V629.113C544.542 629.032 544.473 628.967 544.392 628.973L541.997 629.133L539.452 629.048L536.907 628.963L534.362 629.133L531.818 629.642L529.273 630.066L526.728 628.538L524.183 628.369L521.638 628.538L519.093 628.623L516.548 629.302L514.088 629.557L511.544 629.642L508.999 628.793L506.454 629.897L503.909 628.878L501.364 629.387L498.819 629.048L496.275 628.793L493.73 629.217L491.185 629.727L488.64 630.066L486.095 628.538L483.55 629.133L481.006 629.557L478.461 629.642L475.916 628.963L473.371 629.981L470.826 629.133L468.281 629.302L465.736 629.812L463.192 629.727L460.647 629.642L458.102 629.812L455.557 628.538L453.012 628.793L450.467 629.981L447.923 628.369L445.378 628.793L442.833 629.472L440.288 628.793L437.743 629.557L435.198 628.878L432.654 629.048L430.109 629.133L427.564 629.048L425.019 629.472L422.474 629.812L419.929 629.642L417.384 629.981L414.84 629.727L412.295 628.793L409.75 629.472L407.205 628.793L404.66 628.963L402.115 629.557L399.571 628.454L397.026 628.878L394.481 629.217L391.936 629.387L389.391 629.133L386.846 628.963L384.302 629.642L381.757 628.623L379.212 629.387L376.667 628.963L374.122 629.217L371.577 629.981L369.032 629.048L366.488 628.793L363.943 629.812L361.398 629.048L358.853 629.557H356.308L353.763 630.066L351.219 629.727L348.674 628.793L346.129 629.387L343.584 628.538L341.039 629.981L338.494 629.387L335.95 629.812L333.405 629.981L330.86 629.472L328.315 629.897L325.77 629.387H323.225L320.68 629.897L318.136 628.963L315.591 629.472L313.046 628.538L310.501 628.623L307.956 629.981H305.411L302.867 629.472L300.322 629.812L297.777 629.727L295.232 628.793L292.687 630.066L290.142 628.623L287.597 628.963L285.053 628.538L282.508 629.897L279.963 629.727L277.418 628.623L274.873 628.963L272.328 629.897L269.784 628.793L267.239 629.387L264.694 629.812L262.149 629.302L259.604 629.812L257.059 629.302L254.515 629.217L251.97 629.557L249.425 629.812L246.88 628.538L244.335 629.048L241.706 628.538L239.161 629.897L236.616 629.302L234.071 629.217L231.526 629.133L228.981 628.793L226.436 628.878L223.892 629.897L221.347 629.387L218.802 628.454L216.257 629.217L213.712 628.878L211.167 628.454L208.623 629.217L206.078 629.642L203.533 630.066L200.988 629.981L198.443 628.454L195.898 629.642L193.354 628.454L190.809 629.048L188.264 629.133L185.719 629.812L183.174 628.623L180.629 629.727L178.084 629.387L175.54 629.133L172.995 630.066L170.45 628.454L167.905 628.623L165.36 629.642L162.815 628.454L160.271 629.727L157.726 628.793L155.181 629.897L152.636 628.538L150.091 628.454L147.546 629.302L145.002 629.812L142.457 629.472L139.912 628.963L137.367 629.387L134.822 628.708L132.277 629.472L129.732 628.793L127.103 629.981L124.558 629.302L122.013 628.878L119.468 628.708L116.923 628.538L114.379 629.812L111.834 629.642L109.289 630.066L106.744 628.793H104.199L101.654 629.217L99.1095 628.963L96.5647 629.897L94.0198 629.048L91.475 629.642L88.9301 628.538H86.3853H83.8405L81.2956 629.897L78.7508 628.623L76.2059 628.708L73.6611 628.369L71.1162 628.623L68.5714 629.048L65.9417 628.623L63.3969 629.557H60.8521L58.3072 628.454H55.7624L53.2175 629.387L50.6727 628.454L48.1278 628.878L45.583 629.472L43.0382 628.963H40.4933L37.9485 629.217L35.4036 629.387L32.8588 628.793L30.314 630.066L27.7691 628.793L25.1395 629.557L22.5947 629.812L20.0498 629.981L17.5049 628.708H14.9601L12.4153 629.897L9.87041 629.472L7.95345 628.891C7.5492 628.768 7.15784 629.115 7.23121 629.531V629.531Z" stroke="#1A1C28" stroke-width="2" stroke-miterlimit="10"></path>
								</g>
								<g class="ae-5 fromRight done" id="girl-1">
									<g class="talking" id="talking">
										<path id="Vector_34" d="M291.667 0.848877L292.091 3.14064L292.6 5.34753L293.449 7.46954L294.212 9.67643V12.0531L294.976 14.1751L295.739 16.382" stroke="#1A1C28" stroke-width="2" stroke-miterlimit="10" stroke-linecap="round" stroke-linejoin="round"></path>
										<path id="Vector_35" d="M277.077 11.2041L278.434 13.0715L280.131 14.5993L281.403 16.5516L283.1 18.0794L285.051 19.3526" stroke="#1A1C28" stroke-width="2" stroke-miterlimit="10" stroke-linecap="round" stroke-linejoin="round"></path>
										<path id="Vector_36" d="M264.862 29.8777L267.067 30.2172L269.357 30.3021L271.648 30.2172L273.853 30.6416L276.144 30.7265L278.349 30.9811L280.64 30.7265L282.93 30.8114L285.135 31.1509" stroke="#1A1C28" stroke-width="2" stroke-miterlimit="10" stroke-linecap="round" stroke-linejoin="round"></path>
									</g>
									<path id="Vector_4" d="M443.173 176.636L508.829 274.163L529.188 263.723L474.389 171.628L443.173 176.636Z" fill="#000"></path>
									<path id="Vector_5" d="M351.047 86.0686C352.574 81.5699 361.735 63.1509 361.735 63.1509L426.035 184.19C423.405 191.065 412.717 186.567 411.954 186.142C401.52 180.371 349.52 90.4823 351.047 86.0686Z" fill="#ED9F7D"></path>
									<path id="Vector_6" d="M422.557 78.0051L476.423 163.395L505.264 163.989L452.332 88.5303L422.557 78.0051Z" fill="#000"></path>
									<path id="Vector_7" d="M469.043 157.878L473.454 199.299L544.031 199.044L496.188 150.238L469.043 157.878Z" fill="#252831"></path>
									<path id="Vector_8" d="M523.163 183.341L524.266 181.05V178.673L523.418 176.381L522.654 173.92L520.194 174.174H517.649L515.189 174.853L512.899 173.75L511.542 172.392L512.051 170.1L512.984 167.808L512.305 165.856L509.76 165.347L507.3 166.195" stroke="#22c55e" stroke-width="2" stroke-miterlimit="10" stroke-linecap="round" stroke-linejoin="round"></path>
									<path id="Vector_9" d="M448.684 154.482L431.209 126.981C431.209 126.981 397.872 190.896 359.275 181.898C352.913 180.456 327.719 164.668 344.6 146.503C361.141 128.679 394.309 97.4426 416.28 77.0713C427.901 66.2916 446.224 67.2252 456.658 79.2782L497.036 128.763L448.684 154.482Z" fill="#22c55e"></path>
									<path id="Vector_10" d="M458.109 192.043L511.975 277.433L540.816 278.027L487.883 202.569L458.109 192.043Z" fill="#000"></path>
									<path id="Vector_11" d="M307.869 128.424C307.869 128.424 285.645 164.923 311.347 188.859C325.853 202.355 437.826 198.111 437.826 198.111L478.544 258.545L519.261 233.591C519.261 233.591 502.126 209.315 484.736 185.718C454.876 145.145 454.537 145.909 447.581 144.042C435.196 140.647 369.115 141.071 369.115 141.071L355.204 119.851L307.869 128.424Z" fill="#22c55e"></path>
									<path id="Vector_12" d="M459.627 195.31L460.73 197.432L461.748 199.554L462.681 201.676L463.868 203.798L465.141 205.75L466.413 207.702L467.516 209.824L468.364 212.031L469.128 214.323L470.655 216.19L471.588 218.312L472.521 220.519L473.878 222.471L475.405 224.339L475.999 226.715L477.271 228.668L478.119 230.874L479.731 232.657L480.495 234.949L481.597 237.071L483.124 238.938L483.803 241.23L485.16 243.182" stroke="#1A1C28" stroke-width="2" stroke-miterlimit="10" stroke-linecap="round" stroke-linejoin="round"></path>
									<path id="Vector_13" d="M272.496 85.4745L291.413 115.947C292.091 116.965 293.364 117.474 294.551 117.05L303.713 113.909L307.869 125.962L354.355 117.559L353.252 106.27L357.918 106.525L377.428 80.891L363.602 63.4056C363.602 63.2359 363.517 63.151 363.347 63.0661C362.244 62.8115 356.646 62.1324 328.313 60.4348C328.313 60.4348 324.241 63.9149 317.71 64.3393C314.571 64.5091 312.281 62.1324 312.281 62.1324C277.84 70.7053 272.496 85.4745 272.496 85.4745Z" fill="#000"></path>
									<path id="Vector_14" d="M299.556 100.159L299.896 102.366L300.489 104.573L301.338 106.695L302.441 108.647L302.695 110.939L303.458 113.061L303.967 115.353L305.41 117.22L305.579 119.512L306.852 121.464L307.276 123.756L307.954 125.878" stroke="#1A1C28" stroke-width="2" stroke-miterlimit="10" stroke-linecap="round" stroke-linejoin="round"></path>
									<path id="Vector_15" d="M351.98 82.5886L351.641 84.8804L351.726 87.257L352.065 89.5488L352.659 91.7557L352.319 94.1323L352.574 96.4241L352.489 98.7159L353.422 101.008L353.083 103.299L353.762 105.591L353.677 107.883L353.846 110.175L354.101 112.466L354.016 114.843L354.101 117.135" stroke="#1A1C28" stroke-width="2" stroke-miterlimit="10" stroke-linecap="round" stroke-linejoin="round"></path>
									<path id="Vector_16" d="M339.341 143.702L341.631 143.448L344.006 143.023L346.297 142.259L348.672 142.344H350.962L353.338 141.92L355.713 141.835L358.003 141.75L360.378 141.495L362.669 141.071L365.044 140.816L367.419 140.901L369.794 140.731L372.085 140.222L374.375 140.392L376.665 140.307L379.04 140.562L381.331 139.967L383.621 139.883L385.996 140.477H388.287L390.577 140.646L392.867 140.392L395.243 140.816L397.533 140.222L399.823 140.731L402.199 141.071L404.489 140.816L406.779 140.562L409.154 140.816L411.445 140.986L413.735 141.241L416.026 141.41L418.401 141.156L420.691 141.071L422.981 141.495L425.357 141.665L427.647 141.92L429.937 142.089L432.313 142.174L434.603 142.089L436.893 142.514L439.184 142.853L441.474 143.108L443.849 142.938L446.055 143.787L448.345 144.296L450.635 144.721L453.011 144.975L454.453 146.843L456.489 148.286L457.422 150.493L459.373 151.936L460.645 153.973L462.172 155.755L463.444 157.707L465.311 159.32L466.498 161.272L468.195 162.97L469.213 165.177L470.994 166.79L472.267 168.742L473.709 170.609L474.896 172.731L476.169 174.683L477.865 176.381L478.968 178.418L480.495 180.201L482.022 182.068L483.549 183.851L485.076 185.633L486.518 187.5L487.705 189.538L489.317 191.32L490.165 193.612L491.947 195.225L493.134 197.347L494.576 199.129L496.018 200.996L497.206 203.033L498.903 204.731L499.92 206.938L501.278 208.89L503.059 210.503L504.162 212.625L505.943 214.238L506.876 216.445L507.979 218.567L509.93 220.01L511.287 221.962L512.475 224.084L513.747 226.036L515.02 228.073L516.886 229.601L517.734 231.808L519.601 233.845L517.225 234.779L515.02 235.797L513.323 237.495L510.948 238.259L508.912 239.532L506.876 240.72L505.18 242.588L502.805 243.267L500.938 244.795L499.072 246.322L496.697 247.086L495 248.699L492.88 249.887L490.674 250.821L488.638 252.179L486.772 253.707L484.482 254.556L482.7 256.169L480.41 257.017L478.459 258.375" stroke="#1A1C28" stroke-width="2" stroke-miterlimit="10" stroke-linecap="round" stroke-linejoin="round"></path>
									<path id="Vector_17" d="M192.995 272.69L195.166 272.476L197.251 273.332L199.422 272.744H201.506L203.591 272.476L205.762 273.278L207.846 272.583L210.017 272.476L212.102 272.316L214.273 272.85L216.357 272.957" stroke="#1A1C28" stroke-width="2" stroke-miterlimit="10"></path>
									<path id="Vector_18" d="M289.253 65.9521V68.2438L289.338 70.3658L289.423 72.4879L289.592 74.6099L289.677 76.7319L288.829 78.8539L289.592 80.9759V83.0979L289.338 85.2199L288.914 87.257L289.762 89.379L289.253 91.501L289.083 93.623L288.998 95.7451L289.253 97.8671L289.507 99.9891L288.914 102.111L289.592 104.233L288.32 106.27L289.423 108.392L289.253 110.514L288.574 112.636L289.253 114.758L289.847 116.88L289.168 119.002L289.338 121.124L289.847 123.246L288.744 125.283L289.592 127.405L288.914 129.527L288.829 131.649L288.914 133.771L288.659 135.893L289.168 138.015L288.659 140.137L289.932 142.259L288.574 144.381L288.32 146.419L289.762 148.541L288.744 150.663L288.829 152.785L289.932 154.907L288.574 157.029L288.829 159.151L289.083 161.273L289.338 163.395L289.083 165.517L288.659 167.639L289.253 169.761L288.49 171.798L289.677 173.92L288.574 176.042L289.338 178.164L289.168 180.286L288.914 182.408L289.168 184.53L289.507 186.652L289.677 188.774L289.168 190.896L289.423 193.018L289.677 195.14L289.253 197.262L288.32 199.384L288.998 201.421L289.083 203.543L288.744 205.665L289.592 207.787L289.253 209.909L288.49 212.031L289.592 214.153V216.275L289.762 218.397L288.659 220.519L289.338 222.641L289.423 224.763L289.847 226.885L289.677 229.007V231.129L289.338 233.251L289.253 235.373L289.677 238.004L286.963 237.325L284.842 237.58L282.806 236.731L280.685 238.259L278.565 237.58L276.444 238.259L274.323 237.75L272.203 237.58L270.167 238.089L268.046 238.174L265.925 236.901L263.805 237.41L261.684 238.259L259.648 238.174L257.527 237.325H255.407L253.286 237.071L251.165 238.174L249.044 238.089L247.009 237.156L244.888 238.004L242.767 237.75L240.646 237.495L238.526 237.919L236.405 238.004L234.369 236.816L232.249 238.004L230.128 238.089L228.007 236.986L225.886 238.004L223.766 237.835L221.645 238.089L219.609 238.004L217.488 237.919L215.368 237.75L213.247 238.514L211.126 238.089L209.006 237.325L207.394 237.835L209.006 237.24L211.126 238.174L213.247 238.429L215.368 237.919L217.488 237.071L219.609 238.004L221.73 237.325L223.766 238.344L225.886 238.259L228.007 238.599L230.128 237.156L232.249 238.768L234.369 237.24L236.49 237.156L238.611 238.683L240.731 238.259L242.852 238.514L244.888 238.768L247.009 237.495L249.129 238.599L251.25 238.768L253.371 238.259L255.491 237.325L257.612 237.495L259.733 238.174L261.854 238.004L263.974 237.835L266.095 238.853L268.131 238.938L270.251 237.75L272.372 237.665L274.493 238.514L276.614 237.665L278.734 238.853L280.855 238.259L282.976 237.75L285.096 237.665L287.217 239.108L289.338 238.514L291.458 237.58L293.579 237.835L295.615 238.768L297.736 238.089H299.856L301.977 238.853L304.098 238.344L306.219 238.259L308.339 237.919L310.46 238.089L312.581 239.447L315.041 238.174L316.568 240.296L319.028 240.805L320.385 242.758L320.639 245.049L321.403 247.256L320.385 249.378L320.639 251.5L321.148 253.537L321.233 255.659L320.979 257.782L320.894 259.904L320.3 262.026L321.063 264.148L320.809 266.27L320.554 268.392L321.063 270.514L321.572 272.636L321.318 274.758L321.827 276.88L320.385 279.002L320.809 281.124V283.161L321.572 285.283L321.912 287.405L321.827 289.527L321.403 291.649L321.488 293.771L320.894 295.893L320.3 298.015L321.403 300.137L320.894 302.259L320.809 304.381L321.403 306.503L321.233 308.54L320.385 310.662L320.979 312.784L321.827 314.906L321.572 317.028L320.385 319.15L321.488 321.272L321.572 323.394L320.3 325.516L321.827 327.638L320.979 329.76L321.742 331.882L320.47 334.004L320.639 336.126L320.809 338.248L321.488 340.285L320.3 342.407L321.572 344.529L320.894 346.651L321.233 348.773L321.997 350.895L321.233 353.017L321.063 355.139L321.148 357.261L321.572 359.383L320.894 361.505L321.403 363.627L320.894 365.749L321.148 367.871L320.809 369.993L321.742 372.115L321.827 374.237L321.572 376.359L320.724 378.481L320.554 380.603L320.979 382.725L320.554 384.847L320.47 386.884L320.809 389.006L321.742 391.128L321.403 393.25L321.912 395.372L321.148 397.494L320.385 399.616L321.233 401.738L321.742 403.86L321.318 405.982V408.104L320.554 410.226L321.233 412.348L321.572 414.47V416.592L321.403 418.714L321.148 420.836L320.639 422.958L321.572 425.081L321.063 427.203L321.233 429.325L321.657 431.447L320.809 433.569L320.894 435.436L319.028 435.945L316.907 436.03L314.786 435.266L312.665 436.285L310.545 435.181L308.424 435.351L306.303 435.86L304.183 435.181L302.062 436.285L299.941 435.351L297.905 435.181L295.785 435.012H293.664L291.543 435.181L289.423 435.351L287.302 435.436L285.181 434.842L283.061 434.927L280.94 435.606L278.819 436.285L276.698 435.096L274.578 435.351L272.457 436.03L270.336 435.606L268.216 436.285L266.095 435.181L263.974 435.096L261.854 435.436L259.733 435.266L257.697 435.691L255.576 436.454L253.456 435.436L251.335 435.775L249.214 436.454L247.093 435.606L244.973 434.927L242.852 436.115L240.731 435.096L238.611 435.691L236.49 435.096L234.369 435.181L232.249 435.945L230.128 435.521L228.007 436.37L225.886 435.945L223.766 434.842L221.645 435.775L219.524 435.436L217.404 435.096L215.537 435.436L215.368 433.569L215.113 431.447L215.453 429.409L215.368 427.287L214.604 425.165L214.859 423.043L215.877 420.921L215.198 418.799L215.453 416.677L214.604 414.555L215.453 412.518L216.046 410.396V408.274L215.707 406.152L214.944 404.03L214.519 401.908L215.622 399.786L215.537 397.749L215.028 395.627L215.198 393.505L215.962 391.383L215.028 389.261L215.198 387.139V385.017L215.707 382.895L215.537 380.773L215.792 378.736L215.877 376.614L215.283 374.492L214.435 372.37L215.962 370.248L215.877 368.126L215.792 366.004L214.519 363.882L216.046 361.76L215.283 359.723L215.113 357.601L215.368 355.479L215.113 353.357L215.368 351.235L215.453 349.113L215.368 346.991L214.519 344.869L215.283 342.747L215.792 340.625L215.962 338.503L215.877 336.466L214.435 334.343L214.604 332.221L215.028 330.099L214.774 327.977L214.519 325.855V323.733L215.113 321.611L214.774 319.489L215.537 317.367L214.859 315.245L214.774 313.208L216.131 311.086L215.537 308.964L215.283 306.842L214.519 304.72L215.622 302.598L215.113 300.476L215.622 298.354L215.707 296.232L214.604 294.11L215.877 291.988L214.859 289.866L215.113 287.744L214.774 285.707L215.707 283.585L215.622 281.463L215.962 279.341L214.859 277.219L215.537 275.097L215.028 272.975L215.792 270.938L215.113 268.816V266.779L215.198 264.742L214.859 262.705L214.604 260.667L215.368 258.63L215.537 256.593L215.453 254.556L215.622 252.434L215.537 250.397L215.877 248.36L215.792 246.323L214.944 244.201L213.502 242.503L212.568 240.636L211.381 238.599L209.09 238.259L206.885 238.089V238.344H204.764L202.898 239.362L201.286 240.721L200.353 242.503L199.166 244.201V246.323L198.232 248.445L198.317 250.482L199.081 252.604L198.826 254.726L198.911 256.848L198.317 258.885L198.148 261.007L197.723 263.129L198.148 265.251L199.081 267.288L197.554 269.24L197.045 271.447L195.179 272.89L192.888 272.636L190.683 272.72L188.477 271.702L187.035 269.75L186.611 267.288L187.205 265.166L187.968 263.129L186.781 261.007L186.611 258.885L187.968 256.763V254.641L187.799 252.519L187.12 250.397L186.441 248.275L187.883 246.153L187.629 244.031L186.95 241.909L187.035 239.787L187.629 237.665L187.799 235.543L187.629 233.421L187.29 231.384V229.262L187.629 227.14L186.441 225.018L187.629 222.896L188.138 220.774L186.95 218.652L187.374 216.53L187.629 214.408L186.866 212.286L186.441 210.164L187.035 208.042L187.629 205.92L186.95 203.883L186.866 201.761L186.95 199.639L187.12 197.516L186.441 195.394L187.205 193.272L187.035 191.15L187.374 189.028L186.696 186.906L187.035 184.784L187.629 182.662V180.54L186.611 178.503L187.629 176.381L186.441 174.259L187.29 172.137L187.968 170.015L187.374 167.893L186.866 165.771L186.696 163.649L188.053 161.527L187.29 159.405L186.441 157.283L186.95 155.161L187.12 153.039V150.917L187.459 148.795L187.29 146.673L186.696 144.636L188.053 142.514L186.95 140.392L186.781 138.27L187.035 136.148L187.459 134.026L187.374 131.904L186.611 129.782L187.29 127.66L187.714 125.538L187.799 123.416V121.294L186.526 119.172L187.714 117.05L187.544 114.928L187.799 112.806L187.12 110.684L186.611 108.562L186.95 106.44L186.696 104.318L186.781 102.196L186.95 100.074L186.696 98.0368L187.629 95.9148L187.883 93.7928V91.6708L187.374 89.5488L187.799 87.4268V85.3048L186.781 83.1828V81.0608V78.9388L187.12 76.8167L187.374 74.6947L186.95 72.5727L186.781 70.4507L186.611 68.3287L187.205 66.037L189.41 66.716L191.531 65.4428L193.652 65.6126L195.772 66.037H197.893L200.014 65.6974L202.135 66.8858L204.255 66.4614L206.376 66.1218L208.497 66.6311L210.617 65.5277L212.738 65.6126L214.859 66.4614L216.979 66.1218L219.1 66.4614L221.221 65.6126L223.342 65.8672L225.462 66.4614L227.583 66.3765L229.704 65.6126L231.824 66.716L233.945 65.5277L236.066 65.6974L238.186 66.6311L240.307 66.8009L242.428 66.6311L244.549 66.037L246.669 66.8858L248.79 65.9521L250.911 66.5462L253.031 66.8009H255.152L257.273 66.4614L259.393 65.3579L261.514 66.5462L263.635 65.5277L265.756 66.2916L267.876 65.4428L269.997 66.2067L272.118 66.3765L274.238 65.4428L276.359 65.6974L278.48 66.5462L280.601 66.2916L282.721 66.716L284.842 65.7823L286.963 66.8858L289.253 65.9521Z" fill="white"></path>
									<g id="Vector_19">
										<path d="M289.971 68.2438L290.056 70.3658L290.14 72.4879L290.31 74.6099L290.395 76.7319L289.547 78.8539L290.31 80.9759V83.0979L290.056 85.2199L289.631 87.257L290.48 89.379L289.971 91.501L289.801 93.623L289.716 95.7451L289.971 97.8671L290.225 99.9891L289.631 102.111L290.31 104.233L289.038 106.27L290.14 108.392L289.971 110.514L289.292 112.636L289.971 114.758L290.565 116.88L289.886 119.002L290.056 121.124L290.565 123.246L289.462 125.283L290.31 127.405L289.631 129.527L289.547 131.649L289.631 133.771L289.377 135.893L289.886 138.015L289.377 140.137L290.649 142.259L289.292 144.381L289.038 146.419L290.48 148.541L289.462 150.663L289.547 152.785L290.649 154.907L289.292 157.029L289.547 159.151L289.801 161.273L290.056 163.395L289.801 165.517L289.377 167.639L289.971 169.761L289.207 171.798L290.395 173.92L289.292 176.042L290.056 178.164L289.886 180.286L289.631 182.408L289.886 184.53L290.225 186.652L290.395 188.774L289.886 190.896L290.14 193.018L290.395 195.14L289.971 197.262L289.038 199.384L289.716 201.421L289.801 203.543L289.462 205.665L290.31 207.787L289.971 209.909L289.207 212.031L290.31 214.153V216.275L290.48 218.397L289.377 220.519L290.056 222.641L290.14 224.763L290.565 226.885L290.395 229.007V231.129L290.056 233.251L289.971 235.373L290.395 238.004L287.68 237.325L285.56 237.58L283.524 236.731L281.403 238.259L279.282 237.58L277.162 238.259L275.041 237.75L272.92 237.58L270.884 238.089L268.764 238.174L266.643 236.901L264.522 237.41L262.402 238.259L260.366 238.174L258.245 237.325H256.124L254.004 237.071L251.883 238.174L249.762 238.089L247.726 237.156L245.606 238.004L243.485 237.75L241.364 237.495L239.244 237.919L237.123 238.004L235.087 236.816L232.966 238.004L230.846 238.089L228.725 236.986L226.604 238.004L224.483 237.835L222.363 238.089L220.327 238.004L218.206 237.919L216.085 237.75L213.965 238.514L211.844 238.089L209.723 237.325L208.112 237.835L209.723 237.24L211.844 238.174L213.965 238.429L216.085 237.919L218.206 237.071L220.327 238.004L222.448 237.325L224.483 238.344L226.604 238.259L228.725 238.599L230.846 237.156L232.966 238.768L235.087 237.24L237.208 237.156L239.328 238.683L241.449 238.259L243.57 238.514L245.606 238.768L247.726 237.495L249.847 238.599L251.968 238.768L254.088 238.259L256.209 237.325L258.33 237.495L260.451 238.174L262.571 238.004L264.692 237.835L266.813 238.853L268.849 238.938L270.969 237.75L273.09 237.665L275.211 238.514L277.331 237.665L279.452 238.853L281.573 238.259L283.693 237.75L285.814 237.665L287.935 239.108L290.056 238.514L292.176 237.58L294.297 237.835L296.333 238.768L298.454 238.089H300.574L302.695 238.853L304.816 238.344L306.936 238.259L309.057 237.919L311.178 238.089L313.298 239.447L315.758 238.174L317.285 240.296L319.745 240.805L321.103 242.758L321.357 245.049L322.121 247.256L321.103 249.378L321.357 251.5L321.866 253.537L321.951 255.66L321.696 257.782L321.612 259.904L321.018 262.026L321.781 264.148L321.527 266.27L321.272 268.392L321.781 270.514L322.29 272.636L322.036 274.758L322.545 276.88L321.103 279.002L321.527 281.124V283.161L322.29 285.283L322.63 287.405L322.545 289.527L322.121 291.649L322.205 293.771L321.612 295.893L321.018 298.015L322.121 300.137L321.612 302.259L321.527 304.381L322.121 306.503L321.951 308.54L321.103 310.662L321.696 312.784L322.545 314.906L322.29 317.028L321.103 319.15L322.205 321.272L322.29 323.394L321.018 325.516L322.545 327.638L321.696 329.76L322.46 331.882L321.187 334.004L321.357 336.126L321.527 338.248L322.205 340.285L321.018 342.407L322.29 344.529L321.612 346.651L321.951 348.773L322.714 350.895L321.951 353.017L321.781 355.139L321.866 357.261L322.29 359.383L321.612 361.505L322.121 363.627L321.612 365.749L321.866 367.871L321.527 369.993L322.46 372.115L322.545 374.237L322.29 376.359L321.442 378.481L321.272 380.603L321.696 382.725L321.272 384.847L321.187 386.884L321.527 389.006L322.46 391.128L322.121 393.25L322.63 395.372L321.866 397.494L321.103 399.616L321.951 401.738L322.46 403.86L322.036 405.982V408.104L321.272 410.226L321.951 412.348L322.29 414.47V416.592L322.121 418.714L321.866 420.836L321.357 422.958L322.29 425.081L321.781 427.203L321.951 429.324L322.375 431.447L321.527 433.569L319.745 435.945L317.625 436.03L315.504 435.266L313.383 436.285L311.263 435.181L309.142 435.351L307.021 435.86L304.9 435.181L302.78 436.285L300.659 435.351L298.623 435.181L296.502 435.012H294.382L292.261 435.181L290.14 435.351L288.02 435.436L285.899 434.842L283.778 434.927L281.658 435.606L279.537 436.285L277.416 435.096L275.295 435.351L273.175 436.03L271.054 435.606L268.933 436.285L266.813 435.181L264.692 435.096L262.571 435.436L260.451 435.266L258.415 435.691L256.294 436.454L254.173 435.436L252.053 435.775L249.932 436.454L247.811 435.606L245.69 434.927L243.57 436.115L241.449 435.096L239.328 435.691L237.208 435.096L235.087 435.181L232.966 435.945L230.846 435.521L228.725 436.37L226.604 435.945L224.483 434.842L222.363 435.775L220.242 435.436L218.121 435.096L216.085 433.569L215.831 431.447L216.17 429.409L216.085 427.287L215.322 425.165L215.577 423.043L216.594 420.921L215.916 418.799L216.17 416.677L215.322 414.555L216.17 412.518L216.764 410.396V408.274L216.425 406.152L215.661 404.03L215.237 401.908L216.34 399.786L216.255 397.749L215.746 395.627L215.916 393.505L216.679 391.383L215.746 389.261L215.916 387.139V385.017L216.425 382.895L216.255 380.773L216.51 378.736L216.594 376.614L216.001 374.492L215.152 372.37L216.679 370.248L216.594 368.126L216.51 366.004L215.237 363.882L216.764 361.76L216.001 359.723L215.831 357.601L216.085 355.479L215.831 353.357L216.085 351.235L216.17 349.113L216.085 346.991L215.237 344.869L216.001 342.747L216.51 340.625L216.679 338.503L216.594 336.466L215.152 334.344L215.322 332.221L215.746 330.099L215.492 327.977L215.237 325.855V323.733L215.831 321.611L215.492 319.489L216.255 317.367L215.577 315.245L215.492 313.208L216.849 311.086L216.255 308.964L216.001 306.842L215.237 304.72L216.34 302.598L215.831 300.476L216.34 298.354L216.425 296.232L215.322 294.11L216.594 291.988L215.577 289.866L215.831 287.744L215.492 285.707L216.425 283.585L216.34 281.463L216.679 279.341L215.577 277.219L216.255 275.097L215.746 272.975L216.51 270.938L215.831 268.816V266.779L215.916 264.742L215.577 262.705L215.322 260.667L216.085 258.63L216.255 256.593L216.17 254.556L216.34 252.434L216.255 250.397L216.594 248.36L216.51 246.323L215.661 244.201L214.219 242.503L213.286 240.636L212.099 238.599L209.808 238.259L207.603 238.089V238.344H205.482L203.616 239.362L202.004 240.721L201.071 242.503L199.883 244.201V246.323L198.95 248.445L199.035 250.482L199.799 252.604L199.544 254.726L199.629 256.848L199.035 258.885L198.865 261.007L198.441 263.129L198.865 265.251L199.799 267.288L198.272 269.24L197.763 271.447L195.896 272.89L193.606 272.636L191.401 272.72L189.195 271.702L187.753 269.75L187.329 267.288L187.923 265.166L188.686 263.129L187.498 261.007L187.329 258.885L188.686 256.763V254.641L188.516 252.519L187.838 250.397L187.159 248.275L188.601 246.153L188.347 244.031L187.668 241.909L187.753 239.787L188.347 237.665L188.516 235.543L188.347 233.421L188.007 231.384V229.262L188.347 227.14L187.159 225.018L188.347 222.896L188.856 220.774L187.668 218.652L188.092 216.53L188.347 214.408L187.583 212.286L187.159 210.164L187.753 208.042L188.347 205.92L187.668 203.883L187.583 201.76L187.668 199.638L187.838 197.516L187.159 195.394L187.923 193.272L187.753 191.15L188.092 189.028L187.414 186.906L187.753 184.784L188.347 182.662V180.54L187.329 178.503L188.347 176.381L187.159 174.259L188.007 172.137L188.686 170.015L188.092 167.893L187.583 165.771L187.414 163.649L188.771 161.527L188.007 159.405L187.159 157.283L187.668 155.161L187.838 153.039V150.917L188.177 148.795L188.007 146.673L187.414 144.636L188.771 142.514L187.668 140.392L187.498 138.27L187.753 136.148L188.177 134.026L188.092 131.904L187.329 129.782L188.007 127.66L188.432 125.538L188.516 123.416V121.294L187.244 119.172L188.432 117.05L188.262 114.928L188.516 112.806L187.838 110.684L187.329 108.562L187.668 106.44L187.414 104.318L187.498 102.196L187.668 100.074L187.414 98.0368L188.347 95.9148L188.601 93.7928V91.6708L188.092 89.5488L188.516 87.4268V85.3048L187.498 83.1828V81.0608V78.9388L187.838 76.8167L188.092 74.6947L187.668 72.5727L187.498 70.4507L187.329 68.3287L190.128 66.716L192.249 65.4428L194.37 65.6126L196.49 66.037H198.611L200.732 65.6974L202.852 66.8858L204.973 66.4614L207.094 66.1218L209.214 66.6311L211.335 65.5277L213.456 65.6126L215.577 66.4614L217.697 66.1218L219.818 66.4614L221.939 65.6126L224.059 65.8672L226.18 66.4614L228.301 66.3765L230.421 65.6126L232.542 66.716L234.663 65.5277L236.784 65.6974L238.904 66.6311L241.025 66.8009L243.146 66.6311L245.266 66.037L247.387 66.8858L249.508 65.9521L251.628 66.5462L253.749 66.8009H255.87L257.991 66.4614L260.111 65.3579L262.232 66.5462L264.353 65.5277L266.473 66.2916L268.594 65.4428L270.715 66.2067L272.835 66.3765L274.956 65.4428L277.077 65.6974L279.198 66.5462L281.318 66.2916L283.439 66.716L285.56 65.7823L287.68 66.8858L289.971 68.2438Z" fill="white"></path>
										<path d="M220.327 238.004L222.363 238.089L224.483 237.835L226.604 238.004L228.725 236.986L230.846 238.089L232.966 238.004L235.087 236.816L237.123 238.004L239.244 237.919L241.364 237.495L243.485 237.75L245.606 238.004L247.726 237.156L249.762 238.089L251.883 238.174L254.004 237.071L256.124 237.325H258.245L260.366 238.174L262.402 238.259L264.522 237.41L266.643 236.901L268.764 238.174L270.884 238.089L272.92 237.58L275.041 237.75L277.162 238.259L279.282 237.58L281.403 238.259L283.524 236.731L285.56 237.58L287.68 237.325L290.395 238.004L289.971 235.373L290.056 233.251L290.395 231.129V229.007L290.565 226.885L290.14 224.763L290.056 222.641L289.377 220.519L290.48 218.397L290.31 216.275V214.153L289.207 212.031L289.971 209.909L290.31 207.787L289.462 205.665L289.801 203.543L289.716 201.421L289.038 199.384L289.971 197.262L290.395 195.14L290.14 193.018L289.886 190.896L290.395 188.774L290.225 186.652L289.886 184.53L289.631 182.408L289.886 180.286L290.056 178.164L289.292 176.042L290.395 173.92L289.207 171.798L289.971 169.761L289.377 167.639L289.801 165.517L290.056 163.395L289.801 161.273L289.547 159.151L289.292 157.029L290.649 154.907L289.547 152.785L289.462 150.663L290.48 148.541L289.038 146.419L289.292 144.381L290.649 142.259L289.377 140.137L289.886 138.015L289.377 135.893L289.631 133.771L289.547 131.649L289.631 129.527L290.31 127.405L289.462 125.283L290.565 123.246L290.056 121.124L289.886 119.002L290.565 116.88L289.971 114.758L289.292 112.636L289.971 110.514L290.14 108.392L289.038 106.27L290.31 104.233L289.631 102.111L290.225 99.9891L289.971 97.8671L289.716 95.7451L289.801 93.623L289.971 91.501L290.48 89.379L289.631 87.257L290.056 85.2199L290.31 83.0979V80.9759L289.547 78.8539L290.395 76.7319L290.31 74.6099L290.14 72.4879L290.056 70.3658L289.971 68.2438L287.68 66.8858L285.56 65.7823L283.439 66.716L281.318 66.2916L279.198 66.5462L277.077 65.6974L274.956 65.4428L272.835 66.3765L270.715 66.2067L268.594 65.4428L266.473 66.2916L264.353 65.5277L262.232 66.5462L260.111 65.3579L257.991 66.4614L255.87 66.8009H253.749L251.628 66.5462L249.508 65.9521L247.387 66.8858L245.266 66.037L243.146 66.6311L241.025 66.8009L238.904 66.6311L236.784 65.6974L234.663 65.5277L232.542 66.716L230.421 65.6126L228.301 66.3765L226.18 66.4614L224.059 65.8672L221.939 65.6126L219.818 66.4614L217.697 66.1218L215.577 66.4614L213.456 65.6126L211.335 65.5277L209.214 66.6311L207.094 66.1218L204.973 66.4614L202.852 66.8858L200.732 65.6974L198.611 66.037H196.49L194.37 65.6126L192.249 65.4428L190.128 66.716L187.329 68.3287L187.498 70.4507L187.668 72.5727L188.092 74.6947L187.838 76.8167L187.498 78.9388V81.0608V83.1828L188.516 85.3048V87.4268L188.092 89.5488L188.601 91.6708V93.7928L188.347 95.9148L187.414 98.0368L187.668 100.074L187.498 102.196L187.414 104.318L187.668 106.44L187.329 108.562L187.838 110.684L188.516 112.806L188.262 114.928L188.432 117.05L187.244 119.172L188.516 121.294V123.416L188.432 125.538L188.007 127.66L187.329 129.782L188.092 131.904L188.177 134.026L187.753 136.148L187.498 138.27L187.668 140.392L188.771 142.514L187.414 144.636L188.007 146.673L188.177 148.795L187.838 150.917V153.039L187.668 155.161L187.159 157.283L188.007 159.405L188.771 161.527L187.414 163.649L187.583 165.771L188.092 167.893L188.686 170.015L188.007 172.137L187.159 174.259L188.347 176.381L187.329 178.503L188.347 180.54V182.662L187.753 184.784L187.414 186.906L188.092 189.028L187.753 191.15L187.923 193.272L187.159 195.394L187.838 197.516L187.668 199.638L187.583 201.76L187.668 203.883L188.347 205.92L187.753 208.042L187.159 210.164L187.583 212.286L188.347 214.408L188.092 216.53L187.668 218.652L188.856 220.774L188.347 222.896L187.159 225.018L188.347 227.14L188.007 229.262V231.384L188.347 233.421L188.516 235.543L188.347 237.665L187.753 239.787L187.668 241.909L188.347 244.031L188.601 246.153L187.159 248.275L187.838 250.397L188.516 252.519L188.686 254.641V256.763L187.329 258.885L187.498 261.007L188.686 263.129L187.923 265.166L187.329 267.288L187.753 269.75L189.195 271.702L191.401 272.72L193.606 272.636L195.896 272.89L197.763 271.447L198.272 269.24L199.799 267.288L198.865 265.251L198.441 263.129L198.865 261.007L199.035 258.885L199.629 256.848L199.544 254.726L199.799 252.604L199.035 250.482L198.95 248.445L199.883 246.323V244.201L201.071 242.503L202.004 240.721L203.616 239.362L205.482 238.344H207.603V238.089L209.808 238.259L212.099 238.599L213.286 240.636L214.219 242.503L215.661 244.201L216.51 246.323L216.594 248.36L216.255 250.397L216.34 252.434L216.17 254.556L216.255 256.593L216.085 258.63L215.322 260.667L215.577 262.705L215.916 264.742L215.831 266.779V268.816L216.51 270.938L215.746 272.975L216.255 275.097L215.577 277.219L216.679 279.341L216.34 281.463L216.425 283.585L215.492 285.707L215.831 287.744L215.577 289.866L216.594 291.988L215.322 294.11L216.425 296.232L216.34 298.354L215.831 300.476L216.34 302.598L215.237 304.72L216.001 306.842L216.255 308.964L216.849 311.086L215.492 313.208L215.577 315.245L216.255 317.367L215.492 319.489L215.831 321.611L215.237 323.733V325.855L215.492 327.977L215.746 330.099L215.322 332.221L215.152 334.344L216.594 336.466L216.679 338.503L216.51 340.625L216.001 342.747L215.237 344.869L216.085 346.991L216.17 349.113L216.085 351.235L215.831 353.357L216.085 355.479L215.831 357.601L216.001 359.723L216.764 361.76L215.237 363.882L216.51 366.004L216.594 368.126L216.679 370.248L215.152 372.37L216.001 374.492L216.594 376.614L216.51 378.736L216.255 380.773L216.425 382.895L215.916 385.017V387.139L215.746 389.261L216.679 391.383L215.916 393.505L215.746 395.627L216.255 397.749L216.34 399.786L215.237 401.908L215.661 404.03L216.425 406.152L216.764 408.274V410.396L216.17 412.518L215.322 414.555L216.17 416.677L215.916 418.799L216.594 420.921L215.577 423.043L215.322 425.165L216.085 427.287L216.17 429.409L215.831 431.447L216.085 433.569L218.121 435.096L220.242 435.436L222.363 435.775L224.483 434.842L226.604 435.945L228.725 436.37L230.846 435.521L232.966 435.945L235.087 435.181L237.208 435.096L239.328 435.691L241.449 435.096L243.57 436.115L245.69 434.927L247.811 435.606L249.932 436.454L252.053 435.775L254.173 435.436L256.294 436.454L258.415 435.691L260.451 435.266L262.571 435.436L264.692 435.096L266.813 435.181L268.933 436.285L271.054 435.606L273.175 436.03L275.295 435.351L277.416 435.096L279.537 436.285L281.658 435.606L283.778 434.927L285.899 434.842L288.02 435.436L290.14 435.351L292.261 435.181L294.382 435.012H296.502L298.623 435.181L300.659 435.351L302.78 436.285L304.9 435.181L307.021 435.86L309.142 435.351L311.263 435.181L313.383 436.285L315.504 435.266L317.625 436.03L319.745 435.945L321.527 433.569L322.375 431.447L321.951 429.324L321.781 427.203L322.29 425.081L321.357 422.958L321.866 420.836L322.121 418.714L322.29 416.592V414.47L321.951 412.348L321.272 410.226L322.036 408.104V405.982L322.46 403.86L321.951 401.738L321.103 399.616L321.866 397.494L322.63 395.372L322.121 393.25L322.46 391.128L321.527 389.006L321.187 386.884L321.272 384.847L321.696 382.725L321.272 380.603L321.442 378.481L322.29 376.359L322.545 374.237L322.46 372.115L321.527 369.993L321.866 367.871L321.612 365.749L322.121 363.627L321.612 361.505L322.29 359.383L321.866 357.261L321.781 355.139L321.951 353.017L322.714 350.895L321.951 348.773L321.612 346.651L322.29 344.529L321.018 342.407L322.205 340.285L321.527 338.248L321.357 336.126L321.187 334.004L322.46 331.882L321.696 329.76L322.545 327.638L321.018 325.516L322.29 323.394L322.205 321.272L321.103 319.15L322.29 317.028L322.545 314.906L321.696 312.784L321.103 310.662L321.951 308.54L322.121 306.503L321.527 304.381L321.612 302.259L322.121 300.137L321.018 298.015L321.612 295.893L322.205 293.771L322.121 291.649L322.545 289.527L322.63 287.405L322.29 285.283L321.527 283.161V281.124L321.103 279.002L322.545 276.88L322.036 274.758L322.29 272.636L321.781 270.514L321.272 268.392L321.527 266.27L321.781 264.148L321.018 262.026L321.612 259.904L321.696 257.782L321.951 255.66L321.866 253.537L321.357 251.5L321.103 249.378L322.121 247.256L321.357 245.049L321.103 242.758L319.745 240.805L317.285 240.296L315.758 238.174L313.298 239.447L311.178 238.089L309.057 237.919L306.936 238.259L304.816 238.344L302.695 238.853L300.574 238.089H298.454L296.333 238.768L294.297 237.835L292.176 237.58L290.056 238.514L287.935 239.108L285.814 237.665L283.693 237.75L281.573 238.259L279.452 238.853L277.331 237.665L275.211 238.514L273.09 237.665L270.969 237.75L268.849 238.938L266.813 238.853L264.692 237.835L262.571 238.004L260.451 238.174L258.33 237.495L256.209 237.325L254.088 238.259L251.968 238.768L249.847 238.599L247.726 237.495L245.606 238.768L243.57 238.514L241.449 238.259L239.328 238.683L237.208 237.156L235.087 237.24L232.966 238.768L230.846 237.156L228.725 238.599L226.604 238.259L224.483 238.344L222.448 237.325L220.327 238.004ZM220.327 238.004L218.206 237.919L216.085 237.75L213.965 238.514L211.844 238.089L209.723 237.325L208.112 237.835L209.723 237.24L211.844 238.174L213.965 238.429L216.085 237.919L218.206 237.071L220.327 238.004Z" stroke="#1A1C28" stroke-width="2" stroke-miterlimit="10" stroke-linecap="round" stroke-linejoin="round"></path>
									</g>
									<path id="Vector_20" d="M503.229 264.572L519.091 309.983L581.016 275.946L524.266 253.368L503.229 264.572Z" fill="#252831"></path>
									<path id="Vector_21" d="M559.639 269.749L559.47 267.203L558.367 265.081L556.501 263.468L554.719 261.771L552.683 263.129L550.393 264.317L548.612 266.099L546.067 266.269L544.2 265.675L543.522 263.468L543.267 261.007L541.74 259.564L539.28 260.413L537.584 262.28" stroke="#22c55e" stroke-width="2" stroke-miterlimit="10" stroke-linecap="round" stroke-linejoin="round"></path>
									<path id="Vector_22" d="M242.722 55.1724C242.722 55.1724 230.591 55.427 228.47 64.1697C226.265 72.9972 224.483 82.4189 226.519 83.2677C228.555 84.1165 230.591 68.7532 231.863 69.0078C233.136 69.3474 229.064 87.7664 232.542 88.1908C236.02 88.6152 234.408 68.7532 236.868 69.0078C239.328 69.2625 236.02 84.5409 238.31 84.5409C240.516 84.5409 241.704 67.9044 242.976 68.7532C244.333 69.5171 241.619 77.8354 243.739 77.3261C245.521 76.9017 242.976 70.9601 248.659 66.3766C248.999 66.1219 254.428 65.7824 256.633 65.6975C257.651 65.5278 250.95 55.3421 242.722 55.1724Z" fill="#ED9F7D"></path>
									<path id="Vector_23" d="M385.402 83.6921L378.192 76.6471C377.937 76.1378 377.259 76.0529 377.004 76.4773L356.9 105.676C356.73 105.846 357.918 106.27 358.003 106.525L385.402 84.5409C385.487 84.2014 385.487 83.9468 385.402 83.6921Z" fill="#000"></path>
									<path id="Vector_24" d="M496.781 128.254C494.152 129.697 494.491 130.376 491.861 131.819C489.232 133.262 488.892 132.668 486.263 134.111C483.633 135.554 484.142 136.572 481.512 138.015C478.883 139.458 478.543 138.864 475.914 140.307C473.284 141.75 473.114 141.41 470.4 142.853C467.77 144.296 467.685 144.211 465.056 145.654" stroke="#1A1C28" stroke-width="2" stroke-miterlimit="10" stroke-linecap="round" stroke-linejoin="round"></path>
									<path id="Vector_25" d="M342.31 50.8433C340.274 59.586 317.031 56.5303 308.294 54.4083C299.556 52.3712 306.427 39.9787 308.463 31.3209C310.499 22.5782 320.763 17.4005 328.652 22.8328C336.032 27.9257 344.346 42.1007 342.31 50.8433Z" fill="#252831"></path>
									<path id="Vector_26" d="M310.669 35.2254C310.669 35.2254 308.463 52.7956 312.789 53.8991C317.116 55.0025 318.049 54.7479 315.674 58.0582C313.214 61.3685 312.365 61.9627 312.365 61.9627C312.365 61.9627 316.352 70.4507 323.138 69.0078C325.429 68.4985 329.076 64.594 329.67 60.35C329.755 59.7558 325.598 59.0768 326.786 52.541C327.974 46.0052 329.755 47.4482 329.925 43.2042C330.094 38.9602 326.871 38.1114 323.647 36.1591C320 33.9522 316.183 27.1618 314.741 28.435C313.044 29.7931 310.669 35.2254 310.669 35.2254Z" fill="#ED9F7D"></path>
									<path id="Vector_27" d="M310.669 43.7983C307.952 43.7983 305.749 41.5941 305.749 38.8752C305.749 36.1563 307.952 33.9521 310.669 33.9521C313.386 33.9521 315.589 36.1563 315.589 38.8752C315.589 41.5941 313.386 43.7983 310.669 43.7983Z" stroke="#1A1C28" stroke-miterlimit="10" stroke-linecap="round" stroke-linejoin="round"></path>
									<path id="Vector_28" d="M322.036 44.6471C319.319 44.6471 317.116 42.443 317.116 39.7241C317.116 37.0052 319.319 34.801 322.036 34.801C324.753 34.801 326.956 37.0052 326.956 39.7241C326.956 42.443 324.753 44.6471 322.036 44.6471Z" stroke="#1A1C28" stroke-miterlimit="10" stroke-linecap="round" stroke-linejoin="round"></path>
									<path id="Vector_29" d="M328.313 45.0715C329.586 46.175 331.706 46.0052 332.894 44.5622C334.166 43.1193 334.082 41.0822 332.809 39.9787C331.537 38.8753 329.416 39.045 328.228 40.488C326.956 41.931 326.956 43.9681 328.313 45.0715Z" fill="#E88B68"></path>
									<path id="Vector_30" d="M376.919 76.4771L364.874 90.9916" stroke="#1A1C28" stroke-width="2" stroke-miterlimit="10" stroke-linecap="round" stroke-linejoin="round"></path>
									<path id="Vector_31" d="M340.928 105.201C340.928 105.71 340.504 106.22 339.911 106.22C339.402 106.22 338.893 105.795 338.893 105.201C338.893 104.692 339.317 104.183 339.911 104.183C340.504 104.183 340.928 104.607 340.928 105.201Z" fill="white"></path>
									<path id="Vector_32" d="M312.935 98.0713C312.935 98.5806 312.511 99.0899 311.917 99.0899C311.408 99.0899 310.899 98.6655 310.899 98.0713C310.899 97.562 311.324 97.0527 311.917 97.0527C312.511 97.1376 312.935 97.562 312.935 98.0713Z" fill="white"></path>
									<path id="Vector_33" d="M329.307 84.0659C329.307 84.5752 328.883 85.0845 328.289 85.0845C327.78 85.0845 327.271 84.6601 327.271 84.0659C327.271 83.5566 327.695 83.0474 328.289 83.0474C328.883 83.1322 329.307 83.5566 329.307 84.0659Z" fill="white"></path>
								</g>
								<g class="ae-7 fromRight done" id="girl-2">
									<path id="Vector_37" d="M214.002 564.624L156.913 595.18L168.788 613.599L232.918 588.73L214.002 564.624Z" fill="#BB7937"></path>
									<path id="Vector_38" d="M294.621 508.102C294.381 508.042 294.128 508.072 293.91 508.187L190.868 562.55C190.384 562.806 190.195 563.403 190.444 563.89L212.889 607.822C213.127 608.287 213.682 608.491 214.164 608.291L323.012 563.011L408.246 538.572C409.229 538.29 409.205 536.89 408.214 536.641L294.621 508.102Z" fill="#000"></path>
									<path id="Vector_39" d="M173.568 608.814C174.305 609.962 174.148 612.206 173.259 613.24L164.298 623.667C164.182 623.802 164.048 623.921 163.901 624.02L159.254 627.16C158.337 627.78 157.09 627.536 156.473 626.617L121.715 574.766C121.102 573.851 121.343 572.613 122.255 571.996L125.297 569.937C125.952 569.493 126.807 569.478 127.478 569.897L162.279 591.651C162.597 591.85 162.873 592.122 163.075 592.438C164.523 594.699 170.684 604.319 173.568 608.814Z" fill="#252831"></path>
									<path id="Vector_40" d="M277.114 546.459L296.285 611.478L318.171 611.647L307.567 543.743L277.114 546.459Z" fill="#BB7937"></path>
									<path id="Vector_41" d="M317.153 605.027L321.818 621.154L321.903 629.048L255.568 629.812L255.483 622.852L294.419 604.857C294.334 604.857 317.577 605.027 317.153 605.027Z" fill="#252831"></path>
									<path id="Vector_42" d="M287.972 607.149C288.227 608.252 288.396 608.252 288.651 609.356C288.905 610.459 288.311 610.629 288.566 611.817C288.82 612.921 289.329 612.836 289.584 613.939" stroke="white" stroke-miterlimit="10"></path>
									<path id="Vector_43" d="M284.07 607.658C284.324 608.761 284.494 608.761 284.749 609.865C285.003 610.968 284.409 611.138 284.664 612.326C284.918 613.43 285.427 613.345 285.682 614.448" stroke="white" stroke-miterlimit="10"></path>
									<path id="Vector_44" d="M280.762 609.271C281.016 610.374 281.186 610.374 281.44 611.478C281.695 612.581 281.101 612.751 281.355 613.939C281.61 615.043 282.119 614.958 282.373 616.061" stroke="white" stroke-miterlimit="10"></path>
									<path id="Vector_45" d="M421.831 418.46C421.831 418.46 459.155 471.934 452.623 490.268C446.091 508.687 408.513 481.78 408.513 481.78L409.955 420.412L421.831 418.46Z" fill="#BB7937"></path>
									<path id="Vector_46" d="M427.429 485.176C427.429 485.176 446.516 547.053 399.436 549.685C352.356 552.316 315.541 521.165 315.541 521.165L325.042 574.045L273.24 580.195C273.24 580.195 245.814 498.907 259.527 464.359C271.716 440.989 304.344 459.117 349.218 481.271C355.495 484.327 427.429 485.176 427.429 485.176Z" fill="#000"></path>
									<path id="Vector_47" d="M351.763 408.783C351.763 408.783 312.911 439.85 312.402 443.075C311.893 446.301 283.985 412.603 283.985 412.603L272.363 417.187C272.363 417.187 297.218 472.613 313.929 471.425C330.725 470.237 359.143 431.871 359.143 431.871L351.763 408.783Z" fill="#BB7937"></path>
									<path id="Vector_48" d="M268.122 394.523C268.122 394.523 270.412 393.335 269.479 391.468C268.461 389.6 269.14 387.478 270.243 387.988C271.346 388.582 273.297 392.996 274.315 397.325C275.333 401.653 287.633 417.186 287.633 417.186L273.806 420.072C273.806 420.072 270.667 413.961 269.225 413.452C267.868 412.942 260.488 409.547 258.452 404.115C256.331 398.683 258.537 391.298 259.3 390.364C260.063 389.516 262.948 388.157 264.644 388.327C268.037 388.752 268.801 391.128 268.461 391.638C267.868 392.486 262.778 391.383 263.541 392.062C264.729 393.335 268.122 394.523 268.122 394.523Z" fill="#BB7937"></path>
									<path id="Vector_49" d="M364.402 359.977C364.402 359.977 356.428 375.595 360.585 382.301C364.741 389.006 368.304 387.224 367.541 391.128C366.692 395.033 364.656 401.823 364.656 401.823L392.989 398.004C392.989 398.004 369.237 356.243 364.402 359.977Z" fill="#AF6427"></path>
									<path id="Vector_50" d="M433.707 426.948C433.707 426.948 415.384 399.956 399.521 397.834C383.573 395.627 362.451 398.173 346.928 409.123C331.319 420.073 329.114 422.364 328.35 423.383C327.587 424.401 351.339 439.51 351.339 439.51L350.066 481.95C362.119 528.882 451.096 508.093 449.569 506.99C424.121 488.571 415.384 435.945 415.384 435.945L433.707 426.948Z" fill="#22c55e"></path>
									<path id="Vector_51" d="M364.402 359.977C364.402 359.977 369.152 349.707 381.961 355.309C390.274 358.959 394.686 367.532 392.48 374.407C390.19 381.282 415.384 383.065 405.459 400.55C395.534 418.035 366.268 386.884 368.134 380.603C369.661 375.425 370.085 374.831 369.916 373.643C369.661 371.776 367.116 373.473 367.116 373.473C367.116 373.473 365.589 359.977 364.402 359.977Z" fill="#252831"></path>
									<path id="Vector_52" d="M364.659 359.192C364.659 367.321 371.489 373.926 379.895 373.926C388.301 373.926 395.132 367.321 395.132 359.192C395.132 351.064 388.301 344.459 379.895 344.459C371.384 344.459 364.659 351.064 364.659 359.192Z" fill="#252831"></path>
									<path id="Vector_53" d="M278.047 395.712L279.913 394.863L278.556 393.25L254.719 388.752L254.295 391.213L278.047 395.712Z" fill="#1A1C28"></path>
									<path id="Vector_54" d="M268.122 394.523C268.122 394.523 270.412 393.335 269.479 391.468C268.461 389.6 269.14 387.478 270.243 387.988C271.346 388.582 273.297 392.996 274.315 397.325C275.333 401.653 287.633 417.186 287.633 417.186L273.806 420.072C273.806 420.072 270.667 413.961 269.225 413.452C267.868 412.942 260.488 409.547 258.452 404.115C256.416 398.767 268.122 394.523 268.122 394.523Z" fill="#BB7937"></path>
									<path id="Vector_55" d="M327.671 423.807L329.538 425.081L331.319 426.608L333.525 427.372L335.051 429.24L337.087 430.343L339.208 431.362L340.735 433.059L343.025 433.908L344.976 435.096L346.843 436.455L348.709 437.728L350.66 439.001L352.441 440.444L354.138 441.632L355.41 439.595L356.937 437.473L358.294 435.266L359.058 432.72L360.754 430.683" stroke="white" stroke-width="2" stroke-miterlimit="10" stroke-linecap="round" stroke-linejoin="round"></path>
									<path id="Vector_56" d="M301.629 523.622L302.138 525.913L302.732 528.205L303.665 530.412L303.92 532.789L304.344 535.08L305.446 537.287L306.21 539.494L307.058 541.701L307.737 543.993L308.161 546.285L308.755 548.576L309.857 550.783L310.027 553.16L310.96 555.367L311.724 557.574L312.487 559.781L313.166 562.072L314.269 564.279" stroke="#1A1C28" stroke-width="2" stroke-miterlimit="10" stroke-linecap="round" stroke-linejoin="round"></path>
									<path id="Vector_57" d="M314.184 446.725L312.572 445.197L311.215 443.33L309.518 441.887L308.331 439.934L306.549 438.491L305.277 436.624L303.75 435.011L302.138 433.484L300.442 431.956L298.745 430.428L297.218 428.73" stroke="#1A1C28" stroke-width="2" stroke-miterlimit="10" stroke-linecap="round" stroke-linejoin="round"></path>
									<path id="Vector_58" d="M334.458 589.578L334.627 591.955L334.797 594.332L335.73 596.623L336.748 598.745L337.512 600.952L338.784 602.989L339.972 605.027L341.329 606.894L342.941 608.676L344.298 610.714L345.91 612.411L347.776 613.939L349.812 615.212L351.678 616.74L353.714 618.013L356.004 618.692L358.125 619.796L360.245 620.814L362.366 621.918L364.487 623.021L366.777 623.53L369.068 624.294L371.358 624.804L373.564 625.737L375.854 626.586L378.314 626.501L380.604 627.011L382.895 627.605L385.27 627.944L387.645 628.029L389.935 628.793L392.395 628.708L394.771 628.623L397.146 628.878L399.521 628.369L401.896 628.284L404.271 628.538L406.646 628.199L409.022 628.114L411.312 627.35L413.687 627.095L416.062 627.011L418.353 626.416L420.558 625.568L423.018 625.398L425.139 624.21L427.429 623.53L429.804 623.191L432.095 622.342L434.216 621.324L436.251 619.965L438.542 619.286L440.408 617.674L442.529 616.655L444.565 615.382L446.516 613.939L448.212 612.241L449.569 610.289L451.605 609.016L452.793 606.809L454.489 605.196L455.423 602.989L456.865 601.037L457.967 598.915L458.222 596.538L458.901 594.247L459.664 591.955V589.578L459.918 587.287L459.325 584.91L459.834 582.618L459.155 580.326L458.731 578.035L458.985 575.573L457.967 573.451L457.204 571.244L456.101 569.207L455.507 566.915L453.726 565.303L452.199 563.605L450.418 562.162L448.891 560.379L447.025 559.021L444.819 558.088L442.698 557.324L440.662 556.22L438.542 555.287L436.421 554.268L434.046 553.929L431.84 553.25L429.465 553.419L427.26 552.231L424.969 551.976L422.594 552.061L420.304 551.891L418.013 551.807L415.723 551.382L413.433 550.618L411.058 550.788L408.767 550.873L406.477 550.364L404.102 550.194L401.811 550.958L399.436 550.194L397.146 550.788L394.771 550.533L392.48 550.364L390.105 550.194L387.73 550.788L385.439 550.873L383.149 551.212L380.774 551.297L378.399 550.873L376.108 551.212L373.733 551.552L371.443 551.722L369.068 551.807L366.862 552.57L364.487 552.91L362.112 553.08L359.906 553.589L357.701 554.523L355.325 554.692L353.205 555.966L350.914 556.39L348.963 557.833L346.673 558.597L345.061 560.295L343.025 561.483L341.074 562.926L339.972 565.048L338.869 567L337.087 568.783L336.409 570.99L335.815 573.281L335.221 575.573V577.95L335.052 580.241L334.543 582.533L334.797 584.91L334.712 587.287L334.458 589.578Z" fill="white"></path>
									<path id="Vector_59" d="M334.458 589.578L334.627 591.955L334.797 594.332L335.73 596.623L336.748 598.745L337.512 600.952L338.784 602.989L339.972 605.027L341.329 606.894L342.941 608.676L344.298 610.714L345.91 612.411L347.776 613.939L349.812 615.212L351.678 616.74L353.714 618.013L356.004 618.692L358.125 619.796L360.245 620.814L362.366 621.918L364.487 623.021L366.777 623.53L369.068 624.294L371.358 624.804L373.564 625.737L375.854 626.586L378.314 626.501L380.604 627.011L382.895 627.605L385.27 627.944L387.645 628.029L389.935 628.793L392.395 628.708L394.771 628.623L397.146 628.878L399.521 628.369L401.896 628.284L404.271 628.538L406.646 628.199L409.022 628.114L411.312 627.35L413.687 627.095L416.062 627.011L418.353 626.416L420.558 625.568L423.018 625.398L425.139 624.21L427.429 623.53L429.804 623.191L432.095 622.342L434.216 621.324L436.251 619.965L438.542 619.286L440.408 617.674L442.529 616.655L444.565 615.382L446.516 613.939L448.212 612.241L449.569 610.289L451.605 609.016L452.793 606.809L454.489 605.196L455.423 602.989L456.865 601.037L457.967 598.915L458.222 596.538L458.901 594.247L459.664 591.955V589.578L459.918 587.287L459.325 584.91L459.834 582.618L459.155 580.326L458.731 578.035L458.985 575.573L457.967 573.451L457.204 571.244L456.101 569.207L455.507 566.915L453.726 565.303L452.199 563.605L450.418 562.162L448.891 560.379L447.025 559.021L444.819 558.088L442.698 557.324L440.662 556.22L438.542 555.287L436.421 554.268L434.046 553.929L431.84 553.25L429.465 553.419L427.26 552.231L424.969 551.976L422.594 552.061L420.304 551.891L418.013 551.807L415.723 551.382L413.433 550.618L411.058 550.788L408.767 550.873L406.477 550.364L404.102 550.194L401.811 550.958L399.436 550.194L397.146 550.788L394.771 550.533L392.48 550.364L390.105 550.194L387.73 550.788L385.439 550.873L383.149 551.212L380.774 551.297L378.399 550.873L376.108 551.212L373.733 551.552L371.443 551.722L369.068 551.807L366.862 552.57L364.487 552.91L362.112 553.08L359.906 553.589L357.701 554.523L355.325 554.692L353.205 555.966L350.914 556.39L348.963 557.833L346.673 558.597L345.061 560.295L343.025 561.483L341.074 562.926L339.972 565.048L338.869 567L337.087 568.783L336.409 570.99L335.815 573.281L335.221 575.573V577.95L335.052 580.241L334.543 582.533L334.797 584.91L334.712 587.287L334.458 589.578Z" stroke="#1A1C28" stroke-width="2" stroke-miterlimit="10"></path>
									<path id="Vector_60" d="M323.801 467.988L349.211 480.953" stroke="#1A1C28" stroke-width="2" stroke-miterlimit="10" stroke-linecap="round" stroke-linejoin="round"></path>
									<path id="Vector_61" d="M377.55 371.181C377.55 378.99 383.913 385.356 391.717 385.356C399.521 385.356 405.883 378.99 405.883 371.181C405.883 363.372 399.521 357.006 391.717 357.006C383.913 357.006 377.55 363.372 377.55 371.181Z" fill="#252831"></path>
									<path id="Vector_62" d="M381.707 390.619C381.707 401.823 390.784 410.905 401.981 410.905C413.178 410.905 422.255 401.823 422.255 390.619C422.255 379.415 413.178 370.333 401.981 370.333C390.784 370.333 381.707 379.415 381.707 390.619Z" fill="#252831"></path>
									<path id="Vector_63" d="M382.555 404.455C382.555 416.592 392.395 426.354 404.441 426.354C416.486 426.354 426.326 416.508 426.326 404.455C426.326 392.317 416.486 382.555 404.441 382.555C392.395 382.555 382.555 392.317 382.555 404.455Z" fill="#252831"></path>
									<path id="Vector_64" d="M362.96 403.097C362.96 413.622 371.528 422.195 382.046 422.195C392.565 422.195 401.133 413.622 401.133 403.097C401.133 392.571 392.565 383.999 382.046 383.999C371.528 383.999 362.96 392.487 362.96 403.097Z" fill="#252831"></path>
									<path id="Vector_65" d="M364.911 380.009C364.911 388.667 371.952 395.627 380.519 395.627C389.172 395.627 396.128 388.582 396.128 380.009C396.128 371.351 389.087 364.391 380.519 364.391C371.952 364.391 364.911 371.351 364.911 380.009Z" fill="#252831"></path>
									<path id="Vector_66" d="M157.337 587.881C156.573 588.73 156.658 588.815 155.895 589.663C155.131 590.512 154.622 590.088 153.774 590.937C153.01 591.785 153.35 592.125 152.501 592.974" stroke="white" stroke-miterlimit="10"></path>
									<path id="Vector_67" d="M154.792 584.91C154.029 585.759 154.113 585.844 153.35 586.693C152.586 587.541 152.077 587.117 151.229 587.966C150.466 588.815 150.805 589.154 149.957 590.003" stroke="white" stroke-miterlimit="10"></path>
									<path id="Vector_68" d="M151.568 583.043C150.805 583.892 150.89 583.976 150.126 584.825C149.363 585.674 148.854 585.25 148.006 586.098C147.242 586.947 147.581 587.287 146.733 588.135" stroke="white" stroke-miterlimit="10"></path>
									<path id="Vector_69" d="M395.534 550.109L393.244 550.279L390.868 550.534L388.578 550.109L386.288 550.194L383.997 549.855L381.707 549.091L379.417 549.006L377.211 548.666L374.836 548.412L372.63 547.902L370.34 547.478L368.134 546.969L365.759 546.799L363.639 546.035L361.348 545.611L359.058 545.016L357.107 543.743L354.901 543.064L352.526 542.81L350.575 541.367L348.37 540.772L346.079 540.093L344.213 538.735L342.092 537.802" stroke="#1A1C28" stroke-width="2" stroke-miterlimit="10" stroke-linecap="round" stroke-linejoin="round"></path>
									<path id="Vector_70" d="M312.317 531.096L311.215 529.059L310.96 526.767L309.942 524.645L309.179 522.523L308.331 520.316L307.737 518.109L306.804 515.987L305.871 513.95L304.937 511.828L304.428 509.536L302.986 507.669L302.732 505.292L301.544 503.51L302.986 505.122L304.004 507.329L305.871 508.772L307.482 510.555L308.924 512.337L310.536 514.035L312.148 515.732L313.675 517.515L315.371 519.128L316.983 520.825L318.425 522.693L320.206 524.305L322.327 525.409L323.854 527.276L325.805 528.549L328.095 529.313L329.962 530.671L331.913 532.029L333.864 533.303L335.984 534.406L337.766 535.934L339.887 536.952L341.838 538.226" stroke="#1A1C28" stroke-width="2" stroke-miterlimit="10" stroke-linecap="round" stroke-linejoin="round"></path>
									<path id="Vector_71" d="M312.148 531.181L313.166 533.303L313.336 535.679L314.523 537.717L315.371 539.923L316.22 542.13L316.474 544.422L317.068 546.714L318.001 548.836L318.934 551.043L319.274 553.334L319.782 555.626L320.037 557.918L320.97 560.125L321.394 562.417L322.667 564.454L322.497 566.915L323.176 569.122L324.194 571.329L324.618 573.875L322.242 574.045L319.952 573.96L317.577 573.366L315.371 575.445L312.996 573.96L310.823 575.445H308.129L305.839 576.294L303.464 575.615L301.174 576.294L298.883 576.039L296.508 575.954L295.338 576.636L293.047 577.145H290.508L288.218 577.485L286.445 577.655L283.906 578.671L282.382 578.163L279.937 578.671L276.795 578.163L274.256 578.671H271.573L271.064 576.294L270.894 573.832L270.385 571.541L269.537 569.334V566.872L268.604 564.665L268.434 562.289L267.501 560.082L267.416 557.62L266.398 555.413L266.229 553.037L265.974 550.66L264.956 548.453L264.278 546.161L264.532 543.7L263.854 541.408L263.26 539.116L262.836 536.74L262.072 534.533L261.478 532.241L261.309 529.78L260.545 527.573L260.121 525.196L259.527 522.904" stroke="#1A1C28" stroke-width="2" stroke-miterlimit="10" stroke-linecap="round" stroke-linejoin="round"></path>
									<path id="Vector_72" d="M361.772 374.577C362.706 375.935 364.996 376.02 366.862 374.662C368.728 373.388 369.407 371.181 368.474 369.823C367.541 368.465 365.25 368.465 363.384 369.738C361.518 371.012 360.839 373.219 361.772 374.577Z" fill="#AF6427"></path>
									<path id="Vector_73" d="M365.929 371.266L364.826 372.879" stroke="#1A1C28" stroke-width="2" stroke-miterlimit="10" stroke-linecap="round" stroke-linejoin="round"></path>
									<path id="Vector_74" d="M364.487 373.303C364.487 373.303 354.138 370.248 352.441 378.821C350.745 387.394 358.294 402.248 354.477 404.455" stroke="#1A1C28" stroke-width="0.75" stroke-miterlimit="10" stroke-linecap="round" stroke-linejoin="round"></path>
									
									<g id="text">
										<path id="Vector 11" d="M236.33 381.01C237.348 379.484 237.984 377.729 239.148 376.354C239.278 376.199 239.745 375.663 239.973 375.765C240.154 375.845 240.319 376.304 240.408 376.461C240.727 377.027 241.048 377.576 241.309 378.172C241.325 378.209 242.096 380.196 242.196 380.119C243.048 379.456 244.111 378.17 245.274 378.065C246.679 377.937 247.985 378.351 249.259 378.889C249.771 379.105 250.269 379.535 250.853 379.535C251.626 379.535 252.274 378.83 252.855 378.408C253.749 377.759 254.913 376.585 256.113 376.682C256.926 376.747 258 377.469 258.623 377.967C259.112 378.358 259.417 378.947 259.93 379.299C260.997 380.033 262.313 379.363 263.438 379.074C264.232 378.87 265.01 378.58 265.764 378.264C266.298 378.041 266.903 377.691 267.495 377.691C268.488 377.691 269.389 377.819 270.354 378.08C271.545 378.402 272.704 379.037 273.929 379.238C274.467 379.326 274.97 379.36 275.517 379.35C276.433 379.333 277.246 378.66 278.048 378.295C279.167 377.786 280.064 376.566 280.921 375.708C281.092 375.537 281.543 375.047 281.603 375.452C281.773 376.605 282.109 377.72 282.391 378.848C282.612 379.731 282.709 380.657 282.709 381.563" stroke="#292929" stroke-width="2" stroke-linecap="round" stroke-linejoin="round"></path>
										<path id="Vector 12" d="M236.146 396.408C238.163 394.767 239.875 392.532 242.436 391.706C243.065 391.503 244.026 390.855 244.721 391.194C245.231 391.442 245.611 392.042 246.002 392.433C246.392 392.824 246.841 393.115 247.303 393.412C248.042 393.887 248.726 394.287 249.551 394.61C250.387 394.937 251.363 393.988 252.026 393.529C252.669 393.085 253.508 392.259 254.351 392.259C254.913 392.259 255.304 392.541 255.698 392.915C256.269 393.455 256.823 393.981 257.353 394.559C257.638 394.87 258.142 395.726 258.654 395.527C259.84 395.066 260.773 394.484 261.779 393.729C262.58 393.129 263.233 392.509 264.319 392.771C265.961 393.167 267.468 394.063 268.991 394.748C270.88 395.598 272.85 394.411 274.8 394.293C275.572 394.246 276.23 394.851 277.033 394.743C277.504 394.681 278.224 394.439 278.56 394.103" stroke="#292929" stroke-width="2" stroke-linecap="round" stroke-linejoin="round"></path>
										<path id="Vector 13" d="M236.423 359.619C237.729 359.183 239.022 358.647 240.106 357.78C240.536 357.436 240.823 356.889 241.217 356.484C241.766 355.921 242.049 355.267 242.733 354.829C243.326 354.45 243.876 354.528 244.542 354.686C245.621 354.941 246.476 355.412 247.446 355.931C248.126 356.294 248.69 356.912 249.403 357.222C250.765 357.814 252.541 358.242 253.987 357.677C256.069 356.865 258.097 355.639 260.257 355.06C260.969 354.869 261.585 354.548 262.332 354.548C263.007 354.548 263.619 354.862 264.176 355.234C264.78 355.636 265.462 356.791 266.297 356.525C267.229 356.228 268.605 355.86 269.585 355.951C270.529 356.039 271.459 356.26 272.367 356.525C272.989 356.706 273.351 356.086 273.898 355.859C274.83 355.472 276.004 355.362 276.987 355.608C277.774 355.805 278.407 356.28 279.113 356.668C279.871 357.085 280.777 357.437 281.439 358C281.964 358.448 282.445 358.98 283.098 359.25C283.618 359.464 284.19 359.681 284.737 359.803C285.397 359.95 285.734 359.403 286.3 359.071C289.618 357.119 293.689 358.084 297.298 358.144C298.075 358.156 298.713 358.707 299.485 358.784C300.082 358.844 300.637 358.837 301.242 358.743C302.238 358.587 303.304 358.718 304.285 358.881" stroke="#292929" stroke-width="2" stroke-linecap="round" stroke-linejoin="round"></path>
										<path id="Vector 14" d="M236.146 340.901C237.54 340.089 239.057 339.19 240.203 338.043C240.964 337.282 241.925 336.721 242.877 336.245C243.588 335.89 243.735 335.892 244.409 336.435C245.048 336.951 245.847 337.226 246.545 337.654C246.973 337.917 247.348 338.255 247.784 338.504C248.377 338.843 249.015 339.15 249.608 339.447C250.074 339.68 249.937 339.807 250.407 339.37C251.135 338.692 252.077 338.311 252.876 337.726C253.083 337.574 253.798 336.916 254.034 337.234C254.727 338.169 255.787 339.238 256.754 339.882C257.077 340.098 257.39 339.6 257.65 339.426C258.029 339.174 258.604 338.795 259.059 338.694C259.442 338.608 260.036 338.964 260.396 339.057C261.24 339.277 262.119 339.29 262.957 339.518C264.857 340.037 266.83 340.78 268.837 340.62C269.831 340.54 270.773 340.348 271.778 340.348C272.686 340.348 273.594 340.348 274.503 340.348C275.298 340.348 276.028 339.558 276.849 339.426C277.608 339.305 278.347 339.426 279.113 339.426" stroke="#292929" stroke-width="2" stroke-linecap="round" stroke-linejoin="round"></path>
									</g>
								</g>
							</g>
						</svg>